<?xml version="1.0" encoding="UTF-8"?>
<svg width="700pt" height="700pt" version="1.1" viewBox="0 0 700 700" xmlns="http://www.w3.org/2000/svg">
 <path d="m131.58 77.16c-6.2344 1.7773-11.156 4.7031-16.078 9.625-7.7109 7.7109-11.621 17.227-11.621 28.438 0 3.6914 3.5 33.961 8.8867 76.84 4.9219 38.883 8.9688 71.863 8.9688 73.145 0.054687 1.3125-2.1875 9.0781-5.0586 17.445-13.809 40.25-20.453 82.25-19.414 123.05 0.27344 9.3516 0.68359 18.539 0.875 20.289l0.49219 3.2812h-21.109c-19.469 0-21.273 0.13672-23.242 1.3125-4.2383 2.5977-5.4141 8.4766-2.5156 12.852 2.3242 3.5 3.2266 3.6094 27.125 3.6094h22.285l0.41016 1.8594c2.4609 10.992 5.25 20.836 7.1641 25.293l1.2305 2.8711-1.8594 0.32812c-1.6953 0.32812-7.1094 1.1484-28.984 4.4297-9.707 1.5039-10.992 1.9688-12.852 5.0586-2.6797 4.3203-1.0391 10.172 3.5 12.523 2.6797 1.3672 3.2266 1.3125 28.438-2.6797l18.648-3.0078 4.0469 6.9727c2.2422 3.8281 6.4258 9.9805 9.2969 13.617 2.8711 3.6914 5.1406 6.7812 4.9766 6.8906-0.13672 0.054687-5.1406 1.6406-11.156 3.418-20.098 5.8789-24.609 7.2461-26.523 7.9844-5.1406 1.9688-6.4258 9.7891-2.3242 13.891 3.9648 3.9648 4.5117 3.8828 29.668-3.6914 12.441-3.8281 23.023-7.0547 23.57-7.2461 0.49219-0.21875 3.0625 1.4219 5.6875 3.5547 33.961 27.48 88.262 45.336 150.39 49.438 13.453 0.875 80.719 0.875 94.113 0 29.75-1.9688 58.297-7.0547 80.934-14.438 26.031-8.4219 50.641-21 67.129-34.316l5.6055-4.5938 8.0664 2.4609c32.047 9.707 39.375 11.895 40.25 11.895 2.1328 0 5.6875-2.2422 7.0547-4.4297 2.5977-4.1562 1.0391-10.062-3.2266-12.168-1.0391-0.54688-9.8984-3.3359-19.688-6.2891-9.7891-2.8711-17.992-5.4141-18.266-5.6055-0.27344-0.13672 1.2305-2.3242 3.3359-4.8672 3.5-4.1016 10.992-15.176 14-20.562 0.60156-1.1484 1.5859-1.9688 2.0508-1.8594 0.49219 0.21875 10.609 1.7773 22.422 3.5 20.562 3.1445 21.656 3.2266 24.117 2.1875 3.5547-1.5039 5.6875-6.0156 4.5938-9.9805-0.82031-3.1445-3.8828-6.0156-7.0547-6.5625-3.1445-0.54688-37.242-5.7969-37.598-5.7969-0.21875 0 0.82031-3.5 2.2422-7.6562 1.4219-4.2383 3.2812-10.664 4.1016-14.219 0.82031-3.5547 1.5859-6.8906 1.7773-7.3828 0.21875-0.60156 5.25-0.82031 22.367-0.82031 21.93 0 22.148 0 24.473-1.5859 4.1016-2.7891 5.25-7.7109 2.6797-11.895-2.5156-4.1562-3.2266-4.3203-26.195-4.3203h-20.727l0.49219-4.6484c1.0938-10.336 1.3672-28.438 0.68359-40.797-2.1875-36.504-8.1484-67.867-19.824-103.58l-4.5938-14 1.2305-8.8867c0.68359-4.9219 3.2266-24.746 5.6875-44.078 2.4609-19.359 6.2344-48.453 8.2578-64.586 4.3203-33.496 4.4297-38.062 1.4219-46.812-5.8789-16.68-21-27.016-37.953-25.758-7.3281 0.49219-11.758 2.3242-24.828 10.445-6.2344 3.8281-28.984 17.773-50.586 30.898-21.602 13.125-42.602 25.922-46.758 28.492l-7.5195 4.6484-38.773 0.54688c-21.383 0.27344-56.328 0.27344-77.715 0l-38.965-0.60156-23.105-14.273c-12.715-7.9297-27.891-17.281-33.688-20.836-62.836-38.5-60.703-37.242-67.539-38.773-5.1406-1.0938-12.797-0.875-17.555 0.54688zm16.406 17.281c1.1484 0.49219 7.1094 3.9648 13.344 7.7109 6.2344 3.8281 21.109 12.988 33.141 20.289 12.031 7.3828 33.305 20.453 47.305 29.039l25.375 15.723 12.906 0.41016c7.0547 0.27344 19.195 0.49219 26.934 0.49219 7.7109 0 18.73 0.21875 24.391 0.49219l10.391 0.41016v40.605c0 44.023-0.054687 43.613 3.7734 46.539 2.5977 2.0508 7.6562 2.0508 10.172 0.054687 3.9648-3.0625 3.8281-1.7773 3.8281-46.266v-40.961l14.492-0.41016c7.9297-0.27344 20.016-0.49219 26.797-0.49219 6.8359 0 17.281-0.21875 23.242-0.49219l10.883-0.41016 16.133-9.707c27.891-16.734 91.82-55.781 95.977-58.57 6.2344-4.2383 9.7891-5.6055 14.629-5.5234 7.6562 0.054688 14.766 4.9219 18.266 12.441 2.5156 5.4688 1.9688 13.809-3.8828 58.516-2.8711 21.82-7.1094 54.004-9.3516 71.59l-4.1016 31.855 2.4609 6.7812c10.664 29.477 18.594 65.297 21.547 97.613 1.0391 10.992 1.2305 38.883 0.41016 49.711l-0.60156 7.3828h-47.25c-46.211 0-47.359 0.054687-49.547 1.3672-2.3242 1.4219-4.2383 4.8672-4.2383 7.6016 0 2.4609 2.1875 6.1523 4.375 7.5195 2.0508 1.2305 4.3203 1.3125 47.797 1.3125 36.039 0 45.609 0.21875 45.609 0.82031 0 2.7344-6.8359 24.746-8.0664 25.977-0.27344 0.27344-2.4062 0.21875-4.5938-0.13672-2.2422-0.41016-14.82-2.4062-28.027-4.4297-13.125-2.0508-29.75-4.6484-36.777-5.7969-11.621-1.8594-13.125-1.9141-15.176-1.0391-5.6055 2.3242-6.8359 10.172-2.2422 14.438 2.0508 1.8594 3.2266 2.2422 8.1484 2.9531 16.352 2.3242 68.961 10.801 69.398 11.156 1.5039 1.5859-17.5 25.156-19.688 24.336-0.49219-0.21875-14.902-4.5938-31.992-9.7891-30.625-9.2969-31.117-9.4336-33.77-8.4766-6.3438 2.2422-7.875 10.445-2.6797 15.094 0.76562 0.68359 12.633 4.5938 26.578 8.75 13.891 4.1562 25.84 7.7109 26.523 7.9844 1.0391 0.27344-0.41016 1.5039-6.2344 5.25-27.125 17.637-63.711 29.941-103.77 34.863-20.453 2.5156-27.125 2.7891-70.414 2.7891-44.625-0.054688-51.461-0.32812-72.785-3.5-24.664-3.5547-47.852-9.625-67.758-17.719-12.906-5.25-31.582-15.176-38.062-20.234l-1.5859-1.2305 4.9766-1.4219c21.465-6.2891 46.266-13.945 47.852-14.766 2.4609-1.2305 4.6484-4.7852 4.6484-7.3281 0-3.8281-2.9531-7.6016-6.7812-8.6953-1.9141-0.54687-4.9219 0.21875-19.086 4.4297-9.2969 2.7344-23.789 7.0547-32.266 9.5703l-15.367 4.5117-3.8828-4.3203c-4.4297-4.8672-10.719-13.125-13.18-17.363l-1.6953-2.7891 11.812-1.8594c38.965-6.0703 63.219-10.172 64.75-10.883 2.2422-1.0938 4.7852-4.9766 4.7852-7.4375 0-3.5547-2.0508-6.7812-5.1406-8.1484-2.7344-1.2305-2.8711-1.2305-18.812 1.4219-13.945 2.2422-56.465 9.0234-63.656 10.062-1.9688 0.27344-2.5156 0.13672-2.8711-0.875-0.21875-0.76562-1.5039-4.5117-2.8711-8.4219-1.3672-3.8828-3.0078-9.5156-3.6914-12.441l-1.2305-5.4141h45.391c49.355 0 47.578 0.13672 50.723-3.8281 1.0391-1.3125 1.4219-2.7891 1.4219-5.1406 0-2.8711-0.32812-3.7734-2.3242-5.9609l-2.3242-2.5156-47.852-0.21875-47.852-0.13672-0.41016-2.5977c-0.95703-5.7422-1.2305-40.414-0.49219-50.723 2.4609-31.719 8.1484-59.391 18.812-91.273l5.7422-17.09-9.1602-73.145c-5.0586-40.25-9.2969-75.469-9.3516-78.262-0.13672-6.5078 1.3672-11.156 5.0586-15.312 6.0703-6.8906 14.492-9.3516 22.148-6.4258z"/>
 <path d="m155.86 137.26c-4.0469 1.9688-5.1406 5.1953-5.1406 14.82 0 9.2969 3.0625 38.828 5.1953 49.492 2.4062 12.359 5.332 17.008 11.074 17.637 5.8789 0.68359 10.336-1.9141 30.898-17.828 15.094-11.758 17.719-14.164 19.633-17.828 2.8711-5.5234 1.4219-13.07-3.3359-17.555-2.0508-1.9141-31.445-20.234-39.512-24.555-5.6055-3.0078-12.031-5.4141-14.629-5.4141-0.95703 0-2.8711 0.54688-4.1562 1.2305zm26.934 29.477c7.9297 4.9219 14.984 9.2969 15.723 9.8438 1.1484 0.82031 0.13672 1.7773-12.25 11.348-7.3828 5.7422-13.617 10.336-13.727 10.117-0.21875-0.21875-1.3125-8.3398-2.4062-18.047-1.0391-9.707-2.1328-18.648-2.2422-19.906-0.21875-1.1484-0.13672-2.1875 0.054688-2.1875 0.21875 0 6.8359 3.9648 14.82 8.8047z"/>
 <path d="m539 136.5c-3.6094 0.95703-10.117 4.1562-17.637 8.6953-21.875 13.07-31.719 19.195-33.578 20.836-5.4141 4.9219-6.0156 15.449-1.2305 20.781 1.2305 1.3672 25.566 20.645 32.539 25.703 11.43 8.4219 18.32 9.0781 22.914 2.4609 3.5-5.0586 5.1406-13.945 7.9297-41.426 2.5977-25.375 2.1328-32.266-2.4609-35.602-1.8594-1.3672-6.0703-2.1328-8.4766-1.4219zm-4.7852 23.242c-0.21875 1.0938-0.95703 7.9297-1.6953 15.258-1.8594 18.184-2.4062 22.477-2.9531 22.969-0.27344 0.27344-2.4062-1.0391-4.7852-2.8711-14.164-10.938-21.602-17.09-21.383-17.719 0.13672-0.60156 29.531-19.277 30.625-19.414 0.27344-0.054688 0.32812 0.76562 0.21875 1.7773z"/>
 <path d="m298.59 182.25c-2.3242 1.2305-3.9648 4.2383-3.9648 7.1094 0 2.7344 15.531 64.586 16.816 67.129 2.3242 4.5938 9.8438 5.25 13.398 1.3125 1.0391-1.1484 2.1328-2.9531 2.3242-3.8828 0.32812-1.1484-2.2422-12.441-7.9297-34.672-4.5938-18.102-8.6133-33.496-9.0234-34.18-1.7773-3.418-7.875-4.8672-11.621-2.7891z"/>
 <path d="m393.89 182.88c-1.0938 0.875-2.3242 2.5156-2.7344 3.5547-1.0938 2.7344-17.227 64.75-17.227 66.172 0 2.1875 2.2422 5.8789 4.1562 6.8359 4.1016 2.1328 9.9805 0.68359 11.812-2.9531 1.0938-2.1875 17.5-64.941 17.5-67.047 0-2.1328-1.6953-5.1953-3.8281-6.8359-2.5977-2.0508-7.1094-1.9141-9.707 0.27344z"/>
 <path d="m229 336.73c-12.715 3.3359-22.559 13.535-25.648 26.305-2.8711 12.25 0.76562 24.473 9.8438 33.414 5.1953 5.1406 10.172 7.793 17.363 9.3516 24.664 5.1953 46.43-18.102 40.469-43.477-3.0078-12.523-13.535-23.188-25.648-25.977-4.3203-1.0391-11.977-0.82031-16.406 0.32813zm6.7812 16.625c2.4609 1.7773 4.5117 6.7812 3.8828 9.707-1.0391 5.332-6.8906 9.0781-11.895 7.6016-3.2266-0.95703-6.2891-4.1016-6.8906-7.1094-1.8594-8.6953 7.7109-15.258 14.902-10.172z"/>
 <path d="m456.15 336.66c-9.5156 2.5977-17.719 9.1602-22.148 17.773-3.0625 5.9609-4.1562 10.172-4.1562 16.734 0 6.5078 1.0938 10.801 4.1016 16.625 4.1562 8.0664 11.484 14.219 20.645 17.281 5.8789 1.9688 16.078 1.6953 22.094-0.60156 8.75-3.418 15.312-9.4336 19.277-17.555 9.7891-20.453-1.1484-44.625-22.559-50.258-4.9766-1.2305-12.441-1.2305-17.227 0zm5.6875 15.805c2.5156 1.2305 4.6484 4.2383 5.4141 7.6562 0.76562 3.5-1.8594 8.1484-5.4141 9.7891-3.6094 1.6406-5.6875 1.6406-8.6133-0.13672-2.9531-1.8594-3.8828-3.0078-4.7852-6.1523-1.2305-4.375 1.2305-9.2422 5.7969-11.266 2.7344-1.2305 4.7852-1.1484 7.6016 0.13672z"/>
 <path d="m322.52 423.28c-5.332 1.4219-9.1602 9.1602-7.4375 15.258 1.3672 5.1406 3.0625 7.0547 8.6133 9.5703 8.8047 3.9648 13.891 9.3516 16.734 17.719 1.9141 5.6055 1.9141 16.953 0 23.188-5.6875 18.32-25.211 26.469-40.469 16.734-6.1523-3.8828-10.391-9.8438-12.797-17.992-0.76562-2.6797-2.0508-5.5234-2.8711-6.4258-4.1562-4.5117-11.211-3.2812-13.727 2.4062-1.1484 2.7344-1.2305 3.2812-0.27344 7.3281 2.3242 9.9805 7.1094 18.266 14.438 24.938 18.375 16.816 47.359 14.711 62.891-4.6484l3.3359-4.1562 1.3672 1.9141c0.68359 1.0391 3.3359 3.8828 5.7969 6.3438 14.492 14.219 36.504 15.996 54.141 4.375 5.1953-3.418 9.0781-7.4375 12.633-12.988 2.7891-4.375 6.0703-12.797 6.7812-17.445 1.2305-8.0664-6.3438-13.617-12.715-9.2969-1.9688 1.3125-2.6797 2.5156-4.4297 7.793-3.418 10.336-8.0664 15.914-16.461 19.906-3.418 1.5859-4.7852 1.8594-10.445 1.8594-5.9609 0-6.8906-0.21875-10.992-2.1875-11.977-5.9609-18.539-19.824-16.543-35.055 1.4219-10.992 7.3281-19.004 17.637-23.926 6.5078-3.0078 8.1484-4.8672 9.2969-9.8438 1.5859-7.0547-2.1328-14.164-7.9844-15.531-3.6094-0.82031-53.266-0.68359-56.465 0.21875z"/>
</svg>
